<svg width="55" height="100" viewBox="0 0 55 100" fill="none" xmlns="http://www.w3.org/2000/svg">
<path d="M23.9488 98.6811C25.8222 100.301 28.455 100.554 30.2777 98.7317L42.5305 86.4789C44.3027 84.7068 44.2015 81.922 42.4799 80.2005L36.7585 74.4792L45.3153 65.9224C47.0369 64.201 46.9862 61.4162 45.2647 59.6441L37.5687 51.8974C48.2013 46.5304 54.2265 37.5687 54.2265 27.0373C54.2265 12.0503 42.0749 0 27.088 0C12.0503 0 0 11.9997 0 27.0373C0 37.7205 6.07581 47.3406 15.7465 51.7455V88.9598C15.7465 90.4281 16.2021 92.099 17.4679 93.1622L23.9488 98.6811ZM27.088 91.5927L23.0374 87.5421V46.5304C13.7211 44.5052 7.24028 36.5054 7.24028 27.0373C7.24028 16.1008 16.1009 7.2909 27.088 7.2909C38.075 7.2909 46.885 16.1008 46.885 27.0373C46.885 36.4041 40.3534 44.5052 30.9865 46.5812V55.7455L38.075 62.8339L30.1259 70.6818V78.1753L35.2902 83.2891L27.088 91.5927ZM27.088 26.0753C30.7334 26.0753 33.67 23.1386 33.67 19.4932C33.67 15.8983 30.7334 12.9617 27.088 12.9617C23.4424 12.9617 20.5564 15.8983 20.5564 19.4932C20.5564 23.1386 23.4931 26.0753 27.088 26.0753Z" fill="url(#paint0_linear_103_1061)"/>
<defs>
<linearGradient id="paint0_linear_103_1061" x1="27.1132" y1="0" x2="27.1132" y2="100" gradientUnits="userSpaceOnUse">
<stop stop-color="#4A4A8D"/>
<stop offset="1" stop-color="#7E60BF"/>
</linearGradient>
</defs>
</svg>
